<?xml version="1.0" encoding="UTF-8" standalone="no"?>
<!-- Generator: Adobe Illustrator 28.1.0, SVG Export Plug-In . SVG Version: 6.00 Build 0)  -->

<svg
   version="1.1"
   id="Layer_1"
   x="0px"
   y="0px"
   viewBox="0 0 300 212.54672"
   xml:space="preserve"
   sodipodi:docname="GIB-01.svg"
   width="300"
   height="212.54672"
   inkscape:version="1.3.2 (091e20e, 2023-11-25, custom)"
   xmlns:inkscape="http://www.inkscape.org/namespaces/inkscape"
   xmlns:sodipodi="http://sodipodi.sourceforge.net/DTD/sodipodi-0.dtd"
   xmlns="http://www.w3.org/2000/svg"
   xmlns:svg="http://www.w3.org/2000/svg"><defs
   id="defs1" /><sodipodi:namedview
   id="namedview1"
   pagecolor="#ffffff"
   bordercolor="#999999"
   borderopacity="1"
   inkscape:showpageshadow="2"
   inkscape:pageopacity="0"
   inkscape:pagecheckerboard="0"
   inkscape:deskcolor="#d1d1d1"
   inkscape:zoom="0.674"
   inkscape:cx="262.61128"
   inkscape:cy="185.45994"
   inkscape:window-width="1500"
   inkscape:window-height="912"
   inkscape:window-x="-8"
   inkscape:window-y="-8"
   inkscape:window-maximized="1"
   inkscape:current-layer="Layer_1" />
<style
   type="text/css"
   id="style1">
	.st0{fill:#FDCA04;}
	.st1{fill:#53575D;}
</style>
<g
   id="g8"
   transform="matrix(0.76051381,0,0,-0.76051381,-135.19844,461.28235)">
	<g
   id="g10"
   transform="translate(607.5991,503.9262)">
		<path
   id="path12"
   class="st0"
   d="m -237.8,60.1 35,20.2 v 15.8 h -35 z" />
	</g>
	<g
   id="g14">
		<g
   id="g1">
			<g
   id="g16">
				<g
   id="g22"
   transform="translate(796.2725,446.9404)">
					<path
   id="path24"
   class="st1"
   d="m -239.8,60.8 c 0,0 -11.3,10.4 -41.3,13.3 0,0 13.4,0.3 31.3,10.8 23.5,13.8 15.2,40 15.2,40 -8.1,29.4 -62.9,28.3 -62.9,28.3 h -28.7 v 0 L -361.1,133 V -18 h 67.8 c 0,0 55.4,-1.7 67.3,33.3 -0.2,0 9.9,27.1 -13.8,45.5 m -86.5,89.2 h 26.2 c 0,0 28.1,0.5 30.9,-24.7 0,0 2.5,-24.5 -5.4,-37.4 0,0 -6.6,-12.8 -25.5,-12.8 h -26.2 z m 52.6,-157 c 0,0 -7.4,-7.7 -27.7,-7.7 h -24.8 v 86.6 h 23.7 c 0,0 14.3,0.2 22.1,-4.5 0,0 11.4,-5.8 15.1,-21.9 -0.1,0 7.2,-37.6 -8.4,-52.5 m -152.8,102.3 35,20.2 V -18 h -35 z m -30.3,-99 c -8.6,-6.6 -21.4,-11.2 -35,-14 -11.6,-2.4 -23.9,-3.5 -34.6,-3.5 -35.3,0 -92.1,22.6 -92.1,88.2 0,69.4 53.2,92.6 96.6,92.6 29.9,0 52.6,-13.5 55.2,-15.1 l -3.5,-14.4 c -11.5,15 -28.2,25.2 -52.9,25.2 -13.4,0 -24.4,-4.7 -31.7,-10.5 -8.8,-6.9 -28.5,-22.1 -28.5,-77.2 0,-55.1 26.3,-84.3 58.2,-84.3 12.6,0 26.9,3.3 33.4,12.2 v 50 l -16.4,-9.4 v 12.2 l 51.3,29.6 v 0 z" />
				</g>
				<path
   id="path26"
   class="st0"
   d="m 569.5,399.3 h -389 v 2.6 h 389 z" />
				<g
   id="g28"
   transform="translate(439.1197,266.8626)">
					<path
   id="path30"
   class="st1"
   d="m -236,62.7 c 0,0.6 -0.2,1.1 -0.7,1.6 -0.4,0.4 -1,0.7 -1.6,0.7 -0.6,0 -1.1,-0.2 -1.6,-0.7 -0.4,-0.4 -0.7,-1 -0.7,-1.6 0,-0.6 0.2,-1.1 0.7,-1.6 0.4,-0.4 1,-0.7 1.6,-0.7 0.6,0 1.1,0.2 1.6,0.7 0.5,0.5 0.7,1 0.7,1.6" />
				</g>
				<g
   id="g32"
   transform="translate(431.7076,268.4405)">
					<path
   id="path34"
   class="st1"
   d="m -235.9,62.7 c -0.4,0.4 -1,0.7 -1.6,0.7 -0.6,0 -1.1,-0.2 -1.6,-0.7 -0.4,-0.4 -0.7,-1 -0.7,-1.6 0,-0.6 0.2,-1.1 0.7,-1.6 0.4,-0.4 1,-0.7 1.6,-0.7 0.6,0 1.1,0.2 1.6,0.7 0.4,0.4 0.6,1 0.6,1.6 0.1,0.6 -0.2,1.2 -0.6,1.6" />
				</g>
				<g
   id="g36"
   transform="translate(444.6134,288.8655)">
					<path
   id="path38"
   class="st1"
   d="m -236,62.5 c -1,0.1 -2,0.3 -3,0.5 -1,0.2 -2,0.5 -3,0.7 -1,0.3 -1.9,0.5 -2.8,0.8 h -0.1 v -3.2 l 1.5,-0.4 c 1,-0.3 2.1,-0.6 3.3,-1 1.2,-0.4 2.2,-0.8 3.2,-1.3 1,-0.5 1.8,-1 2.4,-1.6 0.6,-0.6 0.9,-1.2 0.9,-2 0,-0.8 -0.4,-1.6 -1.1,-2.2 -0.7,-0.6 -1.7,-1.1 -2.9,-1.5 -1.2,-0.4 -2.7,-0.7 -4.3,-0.9 -1.6,-0.2 -3.4,-0.3 -5.2,-0.3 -4.9,0 -8.5,0.8 -10.6,2.2 -2.2,1.5 -3.3,3.9 -3.3,7.1 v 6.7 h -3.1 v -7.4 c 0,-1.7 0.3,-3.2 0.8,-4.7 0.5,-1.4 1.4,-2.7 2.7,-3.7 1.3,-1 3,-1.9 5.2,-2.5 2.2,-0.6 4.9,-0.9 8.3,-0.9 3,0 5.6,0.2 7.6,0.7 2.1,0.4 3.8,1 5.1,1.7 1.3,0.7 2.2,1.5 2.8,2.5 0.6,0.9 0.9,1.9 0.9,2.9 0,0.6 -0.2,1.3 -0.5,2.1 -0.3,0.7 -0.8,1.4 -1.4,2.1 l -0.2,0.2 h 28.8 v 27.7 h -3.2 V 62.3 h -26 c -0.9,0 -1.8,0 -2.8,0.2" />
				</g>
				<g
   id="g40"
   transform="translate(499.5326,300.9669)">
					<path
   id="path42"
   class="st1"
   d="m -236.6,62.3 c -0.7,1.1 -1.7,2 -2.8,2.7 -1.2,0.6 -2.6,1 -4.3,1 -1.5,0 -2.9,-0.3 -4.1,-0.9 -1.2,-0.6 -2.2,-1.4 -3,-2.4 -0.8,-1 -1.4,-2.1 -1.9,-3.4 -0.4,-1.2 -0.6,-2.5 -0.6,-3.8 0,-1.6 0.2,-3 0.7,-4.1 0.5,-1.1 1.1,-2 1.9,-2.7 0.8,-0.7 1.8,-1.2 2.8,-1.5 1.1,-0.3 2.2,-0.4 3.5,-0.4 1.4,0 2.7,0.2 3.9,0.6 1,0.3 1.9,0.7 2.7,1.2 l 0.1,0.1 v -1.8 c 0,-1.6 -0.3,-2.9 -0.9,-3.9 -0.6,-1 -1.4,-1.7 -2.4,-2.3 -1,-0.5 -2.3,-0.9 -3.7,-1.1 -1.4,-0.2 -3,-0.3 -4.7,-0.3 h -1 V 36 h 1.2 c 2.4,0 4.5,0.2 6.3,0.6 1.8,0.4 3.4,1 4.6,2 1.2,0.9 2.2,2.2 2.9,3.7 0.7,1.5 1,3.5 1,5.9 V 53 c 0,1.9 -0.2,3.6 -0.5,5.2 -0.5,1.6 -1,3 -1.7,4.1 M -237.9,52 v 0 c -0.6,-0.5 -1.4,-0.9 -2.5,-1.4 -1.1,-0.4 -2.3,-0.6 -3.7,-0.6 -1.8,0 -3.4,0.5 -4.5,1.4 -1.1,0.9 -1.7,2.4 -1.7,4.6 0,0.7 0.1,1.5 0.3,2.3 0.2,0.8 0.6,1.6 1.1,2.3 0.5,0.7 1.2,1.2 2,1.7 0.8,0.4 1.8,0.7 2.9,0.7 1.1,0 2.1,-0.2 2.9,-0.7 0.8,-0.4 1.4,-1.1 1.9,-1.8 0.5,-0.8 0.8,-1.7 1,-2.8 0.2,-1.1 0.3,-2.3 0.3,-3.5 V 52 Z" />
				</g>
				<g
   id="g44"
   transform="translate(524.9269,290.5404)">
					<path
   id="path46"
   class="st1"
   d="m -236.9,62.4 c -0.9,1.2 -2,2.9 -3.2,4.9 l -5.9,9.8 -3.1,-2 4.8,-7 c 0.6,-0.9 1,-1.7 1.3,-2.5 0.3,-0.7 0.5,-1.5 0.5,-2.2 0,-0.8 -0.3,-1.5 -1,-2 -0.7,-0.5 -1.9,-0.8 -3.5,-0.8 h -8.6 v -3.3 h 7.3 c 1,0 2,0 2.9,0.1 0.9,0.1 1.8,0.3 2.5,0.6 0.7,0.3 1.3,0.8 1.9,1.4 0.5,0.6 0.8,1.3 1,2.3 v 0.2 l 0.1,-0.2 c 1,-1.5 1.9,-2.6 2.8,-3.3 0.9,-0.7 2,-1.1 3.3,-1.1 H -222 V 85 h -3.2 V 60.6 h -8.6 c -1.2,0 -2.2,0.6 -3.1,1.8" />
				</g>
				<path
   id="path48"
   class="st1"
   d="m 312.7,375.5 h -3.2 v -27.7 h 3.2 z" />
				<g
   id="g50"
   transform="translate(576.1812,278.0983)">
					<path
   id="path52"
   class="st1"
   d="m -237.5,62.6 c -0.4,0.4 -1,0.7 -1.6,0.7 -0.6,0 -1.1,-0.2 -1.6,-0.7 -0.4,-0.4 -0.7,-1 -0.7,-1.6 0,-0.6 0.2,-1.1 0.7,-1.6 0.4,-0.4 1,-0.7 1.6,-0.7 0.6,0 1.1,0.2 1.6,0.7 0.4,0.4 0.7,1 0.7,1.6 0,0.6 -0.2,1.2 -0.7,1.6" />
				</g>
				<g
   id="g54"
   transform="translate(628.3675,280.288)">
					<path
   id="path56"
   class="st1"
   d="m -238,62.6 c -0.4,0.4 -1,0.7 -1.6,0.7 -0.6,0 -1.1,-0.2 -1.6,-0.7 -0.4,-0.4 -0.7,-1 -0.7,-1.6 0,-0.6 0.2,-1.1 0.7,-1.6 0.4,-0.4 1,-0.7 1.6,-0.7 0.6,0 1.1,0.2 1.6,0.7 0.4,0.4 0.7,1 0.7,1.6 -0.1,0.6 -0.3,1.1 -0.7,1.6" />
				</g>
				<g
   id="g58"
   transform="translate(621.6154,280.288)">
					<path
   id="path60"
   class="st1"
   d="m -238,62.6 c -0.4,0.4 -1,0.7 -1.6,0.7 -0.6,0 -1.1,-0.2 -1.6,-0.7 -0.4,-0.4 -0.6,-1 -0.6,-1.6 0,-0.6 0.2,-1.1 0.6,-1.6 0.4,-0.4 1,-0.7 1.6,-0.7 0.6,0 1.1,0.2 1.6,0.7 0.5,0.5 0.7,1 0.7,1.6 0,0.6 -0.2,1.1 -0.7,1.6" />
				</g>
				<g
   id="g62"
   transform="translate(661.2975,312.0301)">
					<path
   id="path64"
   class="st1"
   d="m -238.4,62.2 c 0.4,-0.4 0.9,-0.7 1.5,-0.7 0.6,0 1.1,0.2 1.6,0.7 0.4,0.4 0.7,1 0.7,1.6 0,0.6 -0.2,1.1 -0.7,1.5 -0.4,0.4 -1,0.6 -1.6,0.6 -0.6,0 -1.1,-0.2 -1.5,-0.6 -0.4,-0.4 -0.6,-0.9 -0.6,-1.5 0,-0.6 0.2,-1.1 0.6,-1.6" />
				</g>
				<g
   id="g66"
   transform="translate(677.0474,288.7626)">
					<path
   id="path68"
   class="st1"
   d="m -238.6,62.5 c 0,2.1 -0.3,4.2 -0.8,6.1 -0.5,2 -1.4,3.7 -2.6,5.2 -1.2,1.5 -2.7,2.7 -4.5,3.5 -1.8,0.9 -4,1.3 -6.5,1.3 -1.1,0 -2.2,-0.1 -3.3,-0.3 -1.1,-0.2 -1.9,-0.4 -2.6,-0.6 v 0 -3.1 h 0.1 c 0.8,0.2 1.6,0.3 2.5,0.4 2.7,0.4 5,0.2 7.2,-0.5 1.4,-0.5 2.6,-1.2 3.6,-2.2 1,-1 1.8,-2.4 2.4,-4 0.6,-1.6 0.9,-3.6 0.9,-5.9 v -0.1 h -27.3 c -1.7,0 -2.9,0.6 -3.5,1.7 -0.6,1.1 -0.9,2.6 -0.9,4.6 v 18.2 h -3.2 V 66.3 c 0,-1 -0.2,-1.7 -0.4,-2.3 -0.3,-0.5 -0.7,-0.9 -1.2,-1.2 -0.5,-0.2 -1.1,-0.4 -1.7,-0.4 -0.6,0 -1.3,-0.1 -2,-0.1 h -3.1 c -1.7,0 -2.9,0.6 -3.5,1.7 -0.6,1.1 -0.9,2.6 -0.9,4.6 V 78 h -3.2 V 66.3 c 0,-1 -0.1,-1.7 -0.4,-2.3 -0.3,-0.5 -0.7,-0.9 -1.2,-1.2 -0.5,-0.2 -1.1,-0.4 -1.7,-0.4 -0.6,0 -1.3,-0.1 -2,-0.1 h -27.8 v 0.1 c 0,2.1 -0.3,4.2 -0.8,6.1 -0.5,2 -1.4,3.7 -2.6,5.2 -1.2,1.5 -2.7,2.7 -4.5,3.5 -1.8,0.9 -4,1.3 -6.5,1.3 -1.1,0 -2.2,-0.1 -3.3,-0.3 -1.1,-0.2 -1.9,-0.4 -2.6,-0.6 v 0 -3.1 h 0.1 c 0.8,0.2 1.6,0.3 2.6,0.4 2.7,0.4 5.1,0.2 7.2,-0.5 1.4,-0.5 2.6,-1.2 3.6,-2.2 1,-1 1.9,-2.4 2.5,-4 0.6,-1.6 0.9,-3.6 0.9,-5.9 v -0.1 h -11.5 c -1.6,0 -3.2,-0.2 -4.8,-0.5 -1.6,-0.4 -3.1,-1 -4.4,-1.9 -1.3,-0.9 -2.4,-2.1 -3.2,-3.7 -0.8,-1.5 -1.2,-3.5 -1.2,-5.9 0,-1.9 0.4,-3.7 1,-5.1 0.7,-1.5 1.7,-2.7 2.9,-3.7 1.2,-1 2.7,-1.7 4.5,-2.3 1.7,-0.5 3.7,-0.8 5.8,-0.8 0.5,0 1.1,0 1.9,0.1 0.8,0.1 1.7,0.2 2.6,0.4 0.9,0.2 1.9,0.5 3,0.8 1,0.3 2,0.8 2.9,1.4 v 0 l -1.3,2.6 v 0 c -1.9,-0.8 -3.5,-1.4 -5,-1.6 -3.3,-0.5 -6,-0.4 -8.3,0.2 -1.3,0.3 -2.4,0.9 -3.4,1.6 -1,0.7 -1.7,1.6 -2.3,2.8 -0.6,1.1 -0.9,2.5 -0.9,4 0,1.7 0.3,3.1 1,4.2 0.6,1.1 1.5,1.9 2.4,2.5 1,0.6 2.1,1 3.3,1.3 1.2,0.2 2.3,0.3 3.5,0.3 h 43.3 c 0.9,0 1.7,0 2.5,0.1 0.7,0.1 1.4,0.2 2,0.4 0.6,0.2 1.1,0.5 1.6,0.9 0.4,0.3 0.8,0.8 1.1,1.3 l 0.1,0.1 0.1,-0.1 c 0.5,-1 1.1,-1.7 2,-2.1 0.9,-0.4 1.9,-0.6 3,-0.6 v 0 h 3.7 c 0.9,0 1.7,0 2.5,0.1 0.7,0.1 1.4,0.2 2,0.4 0.6,0.2 1.1,0.5 1.6,0.9 0.4,0.3 0.8,0.8 1.1,1.3 l 0.1,0.1 0.1,-0.1 c 0.5,-1 1.1,-1.7 2,-2.1 0.9,-0.4 2,-0.6 3.1,-0.6 h 45.5 v 27.6 h -3.2 V 62.4 Z" />
				</g>
				<path
   id="path70"
   class="st1"
   d="m 463.1,375.5 h -3.2 v -27.7 h 3.2 z" />
				<g
   id="g72"
   transform="translate(738.2906,301.331)">
					<path
   id="path74"
   class="st1"
   d="m -239.2,62.3 c -0.6,0.5 -0.9,1.2 -0.9,2.1 0,0.6 0.2,1.1 0.6,1.6 0.4,0.5 1.1,0.8 2.2,0.8 0.3,0 0.5,0 0.8,-0.1 0.3,0 0.6,-0.1 0.9,-0.2 h 0.1 v 2.1 0 c -0.2,0.1 -0.5,0.1 -0.9,0.1 -0.3,0 -0.7,0.1 -1.1,0.1 -1.2,0 -2.2,-0.4 -3.1,-1.1 -0.9,-0.7 -1.3,-1.8 -1.3,-3.2 0,-1 0.3,-1.9 1,-2.8 l 0.1,-0.2 h -2.3 v -1.9 h 8.5 v 1.9 h -2 c -1.1,0.1 -2,0.3 -2.6,0.8" />
				</g>
				<g
   id="g76"
   transform="translate(789.7623,312.0808)">
					<path
   id="path78"
   class="st1"
   d="m -239.8,62.2 c 0.4,-0.4 0.9,-0.7 1.5,-0.7 0.6,0 1.1,0.2 1.6,0.7 0.4,0.4 0.7,1 0.7,1.6 0,0.6 -0.2,1.1 -0.7,1.5 -0.5,0.4 -1,0.6 -1.6,0.6 -0.6,0 -1.1,-0.2 -1.5,-0.6 -0.4,-0.4 -0.6,-0.9 -0.6,-1.5 0,-0.6 0.2,-1.1 0.6,-1.6" />
				</g>
				<g
   id="g80"
   transform="translate(805.8116,288.6666)">
					<path
   id="path82"
   class="st1"
   d="m -239.9,62.5 h -8.3 c -1.7,0 -2.9,0.6 -3.5,1.7 -0.6,1.1 -0.9,2.6 -0.9,4.6 V 78 h -3.2 V 66.4 c 0,-1 -0.1,-1.7 -0.4,-2.3 -0.3,-0.5 -0.7,-0.9 -1.2,-1.2 -0.5,-0.2 -1.1,-0.4 -1.7,-0.4 -0.6,0 -1.3,-0.1 -2,-0.1 h -23 c -0.9,0 -1.6,0.1 -2.2,0.4 -0.6,0.3 -1,0.7 -1.4,1.2 -0.3,0.5 -0.6,1.2 -0.7,2 -0.1,0.8 -0.2,1.6 -0.2,2.6 v 18.2 h -3.1 V 66.4 c 0,-1 -0.1,-1.7 -0.4,-2.3 -0.3,-0.5 -0.7,-0.9 -1.2,-1.2 -0.5,-0.2 -1,-0.4 -1.7,-0.4 -0.6,0 -1.3,-0.1 -2,-0.1 h -18.8 c -1.7,0 -3.2,0.1 -4.3,0.2 -1.1,0.1 -2,0.4 -2.7,0.7 -0.7,0.4 -1.1,0.9 -1.4,1.6 -0.3,0.7 -0.4,1.7 -0.4,2.8 v 5.9 h -3.1 v -7.4 c 0,-1.3 0.2,-2.4 0.5,-3.3 0.3,-0.9 0.9,-1.6 1.6,-2.2 0.7,-0.6 1.8,-1 3,-1.2 1.3,-0.2 2.8,-0.4 4.7,-0.4 h 21.3 c 1.8,0 3.3,0.2 4.4,0.6 1,0.4 1.9,1.1 2.7,2.1 l 0.1,0.1 0.1,-0.1 c 0.5,-1 1.1,-1.7 2,-2.1 1,-0.4 2,-0.6 3.2,-0.6 h 23.5 c 0.9,0 1.7,0 2.5,0.1 0.7,0.1 1.4,0.2 2,0.4 0.6,0.2 1.1,0.5 1.6,0.9 0.4,0.3 0.8,0.8 1.1,1.3 l 0.1,0.1 0.1,-0.1 c 0.5,-1 1.1,-1.7 2,-2.1 0.9,-0.4 1.9,-0.6 3,-0.6 0,0 0,0 0,0 h 11.6 V 78 h -3.2 V 62.5 Z" />
				</g>
				<g
   id="g84"
   transform="translate(808.8245,280.3883)">
					<path
   id="path86"
   class="st1"
   d="m -240,62.6 c -0.4,0.4 -1,0.7 -1.6,0.7 -0.6,0 -1.1,-0.2 -1.6,-0.7 -0.4,-0.4 -0.7,-1 -0.7,-1.6 0,-0.6 0.2,-1.1 0.7,-1.6 0.4,-0.4 1,-0.7 1.6,-0.7 0.6,0 1.1,0.2 1.6,0.7 0.4,0.4 0.7,1 0.7,1.6 0,0.6 -0.2,1.1 -0.7,1.6" />
				</g>
			</g>
		</g>
	</g>
</g>
</svg>
